<svg height="384" viewBox="0 0 384 384" width="384" xmlns="http://www.w3.org/2000/svg"><g fill="none"><g fill="#cce4ff" transform="translate(16 16)"><path d="m288 288h-224v-32h-64v96h352v-128h-64z"/><path d="m0 96h64v-32h224v64h64v-128h-352z"/><path d="m223.12 221.52c19.04-6.24 32.88-24.32 32.88-45.52s-13.84-39.28-32.88-45.52c-4.72-1.6-9.84-2.48-15.12-2.48-26.48 0-48 21.52-48 48s21.52 48 48 48c5.28 0 10.4-.88 15.12-2.48z"/></g><path d="m0 96v32 128 32 96h384v-128-32-64-32-128h-384zm352 128h-32-32-8.72c5.496-9.512 8.72-20.424 8.72-32s-3.224-22.488-8.728-32h8.728 32 32zm-128-96c-35.288 0-64 28.712-64 64s28.712 64 64 64h64v32h-192v-32-128-32h192v32zm32 64c0 13.84-8.784 26.032-22 30.368-3.208 1.088-6.576 1.632-10 1.632-17.648 0-32-14.352-32-32s14.352-32 32-32c3.432 0 6.792.552 9.984 1.632l.16.048c13.072 4.288 21.856 16.472 21.856 30.32zm-224-160h320v96h-32v-64h-256v32h-32zm0 96h32v128h-32zm0 160h32v32h256v-64h32v96h-320z" fill="#007aff"/></g></svg>